<svg width="33" height="33" viewBox="0 0 33 33" fill="none" xmlns="http://www.w3.org/2000/svg">
<path d="M16.7237 0.156982C7.88676 0.156982 0.723022 7.32203 0.723022 16.1576C0.723022 24.9945 7.88676 32.157 16.7237 32.157C25.5606 32.157 32.723 24.9945 32.723 16.1576C32.723 7.32203 25.5599 0.156982 16.7237 0.156982ZM24.7835 12.9315C24.7919 13.1044 24.7951 13.2778 24.7951 13.4533C24.7951 18.7821 20.7393 24.9257 13.3228 24.9257C11.046 24.9257 8.92575 24.2583 7.14148 23.1147C7.45727 23.1518 7.7776 23.1706 8.10314 23.1706C9.99268 23.1706 11.7315 22.5261 13.1109 21.4448C11.3468 21.4117 9.85818 20.2454 9.34486 18.6437C9.59047 18.6917 9.84323 18.7158 10.1031 18.7158C10.4709 18.7158 10.827 18.6677 11.1655 18.5748C9.32016 18.2044 7.9303 16.5735 7.9303 14.6216C7.9303 14.604 7.9303 14.5871 7.93095 14.5696C8.47416 14.8717 9.09599 15.053 9.75746 15.0745C8.67494 14.35 7.96344 13.1173 7.96344 11.7177C7.96344 10.9789 8.16227 10.2856 8.50925 9.69045C10.4982 12.1297 13.4696 13.7353 16.8211 13.9029C16.7523 13.6086 16.7165 13.2999 16.7165 12.9841C16.7165 10.758 18.5216 8.95231 20.749 8.95231C21.9089 8.95231 22.9563 9.44223 23.6918 10.2252C24.6106 10.0452 25.4735 9.70864 26.2526 9.24665C25.9504 10.1888 25.3117 10.9789 24.4787 11.4773C25.2955 11.3799 26.0726 11.1628 26.7951 10.8425C26.2558 11.6528 25.5716 12.363 24.7835 12.9315Z" fill="white"/>
</svg>
